<svg xmlns="http://www.w3.org/2000/svg" width="32" height="32" viewBox="0 0 32 32" fill="none">
  <g clip-path="url(#clip0_1145_9536)">
    <path d="M19.9993 11C20.3259 11 20.6411 11.09 20.8852 11.2527C21.1292 11.4155 21.2851 11.6397 21.3233 11.883L21.3327 12V12.454C23.4527 12.832 25.1327 13.391 26.366 13.913L26.666 14.043V14C26.6664 13.7451 26.7965 13.5 27.0298 13.3146C27.2631 13.1293 27.582 13.0178 27.9212 13.0028C28.2605 12.9879 28.5945 13.0707 28.8551 13.2343C29.1157 13.3979 29.2832 13.6299 29.3233 13.883L29.3327 14V20.9C29.3329 21.1711 29.1996 21.4326 28.9585 21.6345C28.7173 21.8364 28.3853 21.9644 28.026 21.994L27.866 22H21.3927C20.674 22 20.0833 21.593 20.0073 21.07L19.9993 20.954V20.5C20.0004 19.7191 19.5953 18.9687 18.8703 18.4082C18.1453 17.8477 17.1575 17.5213 16.1167 17.4984C15.076 17.4755 14.0643 17.7578 13.2967 18.2855C12.5291 18.8131 12.0661 19.5444 12.006 20.324L11.9993 20.5V20.955C11.9993 21.494 11.4567 21.937 10.7593 21.994L10.6047 22H4.13268C3.77127 22.0001 3.42252 21.9002 3.15332 21.7193C2.88412 21.5385 2.71344 21.2894 2.67402 21.02L2.66602 20.9V14C2.66639 13.7451 2.79652 13.5 3.02981 13.3146C3.26311 13.1293 3.58195 13.0178 3.92121 13.0028C4.26046 12.9879 4.59452 13.0707 4.85513 13.2343C5.11573 13.3979 5.28321 13.6299 5.32335 13.883L5.33268 14V14.042C6.83857 13.3823 8.45815 12.881 10.146 12.552L10.666 12.455V12C10.6664 11.7451 10.7965 11.5 11.0298 11.3146C11.2631 11.1293 11.582 11.0178 11.9212 11.0028C12.2605 10.9879 12.5945 11.0707 12.8551 11.2343C13.1157 11.3979 13.2832 11.6299 13.3233 11.883L13.3327 12V12.109C14.8924 11.9806 16.465 11.9652 18.0287 12.063L18.666 12.109V12C18.666 11.7348 18.8065 11.4804 19.0565 11.2929C19.3066 11.1054 19.6457 11 19.9993 11Z" fill="black"/>
  </g>
  <defs>
    <clipPath id="clip0_1145_9536">
      <rect width="32" height="32" fill="white"/>
    </clipPath>
  </defs>
</svg>