<svg xmlns="http://www.w3.org/2000/svg" width="32" height="32" viewBox="0 0 32 32" fill="none">
  <g clip-path="url(#clip0_1145_9597)">
    <path fill-rule="evenodd" clip-rule="evenodd" d="M14.3341 3.42266C14.8408 3.13009 15.4156 2.97607 16.0007 2.97607C16.5858 2.97607 17.1607 3.13009 17.6674 3.42266L26.0594 8.26799C26.5661 8.56054 26.9869 8.98132 27.2795 9.48804C27.572 9.99475 27.726 10.5695 27.7261 11.1547V20.8453C27.726 21.4304 27.572 22.0052 27.2795 22.5119C26.9869 23.0187 26.5661 23.4394 26.0594 23.732L17.6674 28.5773C17.1607 28.8699 16.5858 29.0239 16.0007 29.0239C15.4156 29.0239 14.8408 28.8699 14.3341 28.5773L5.94206 23.732C5.43534 23.4394 5.01455 23.0187 4.72199 22.5119C4.42943 22.0052 4.27541 21.4304 4.27539 20.8453V11.1547C4.27541 10.5695 4.42943 9.99475 4.72199 9.48804C5.01455 8.98132 5.43534 8.56054 5.94206 8.26799L14.3341 3.42266ZM10.6927 11.396L18.4234 6.93866L21.0914 8.47866L13.3607 12.936L10.6927 11.396Z" fill="black"/>
  </g>
  <defs>
    <clipPath id="clip0_1145_9597">
      <rect width="32" height="32" fill="white"/>
    </clipPath>
  </defs>
</svg>