<svg xmlns="http://www.w3.org/2000/svg" width="32" height="32" viewBox="0 0 32 32" fill="none">
  <g clip-path="url(#clip0_1145_9637)">
    <path d="M27.6874 10.6425L27.7167 10.8959L27.7261 11.1545V20.8452C27.7259 21.39 27.5923 21.9264 27.3368 22.4075C27.0814 22.8887 26.7119 23.2999 26.2607 23.6052L26.0607 23.7319L17.6674 28.5772L17.5021 28.6665L17.3341 28.7465V16.7599L27.6874 10.6425ZM4.31406 10.6425L14.6674 16.7612V28.7452C14.5532 28.6954 14.442 28.6393 14.3341 28.5772L5.94206 23.7319C5.43534 23.4393 5.01455 23.0185 4.72199 22.5118C4.42943 22.0051 4.27541 21.4303 4.27539 20.8452V11.1545C4.27539 10.9812 4.28872 10.8105 4.31539 10.6425H4.31406ZM17.6674 3.42252L26.0594 8.26786C26.1261 8.30786 26.1927 8.34786 26.2567 8.39052L16.0007 14.4532L5.74472 8.38919C5.80872 8.34652 5.87406 8.30519 5.94206 8.26652L14.3341 3.42119C14.8408 3.12863 15.4156 2.97461 16.0007 2.97461C16.5858 2.97461 17.1607 3.12996 17.6674 3.42252Z" fill="black"/>
  </g>
  <defs>
    <clipPath id="clip0_1145_9637">
      <rect width="32" height="32" fill="white"/>
    </clipPath>
  </defs>
</svg>