<svg xmlns="http://www.w3.org/2000/svg" width="32" height="32" viewBox="0 0 32 32" fill="none">
  <g clip-path="url(#clip0_1145_9576)">
    <path d="M7.40732 6.89152L14.8127 11.8289C15.178 12.0723 15.4776 12.4022 15.6849 12.7892C15.8921 13.1763 16.0006 13.6085 16.0007 14.0475V28.0009C16.0007 28.2422 15.9352 28.4791 15.8112 28.6862C15.6871 28.8933 15.5092 29.0628 15.2963 29.1767C15.0835 29.2906 14.8437 29.3445 14.6026 29.3328C14.3615 29.3211 14.1281 29.2442 13.9273 29.1102L6.52198 24.1742C6.15644 23.9306 5.85672 23.6005 5.64947 23.2132C5.44222 22.8259 5.33385 22.3934 5.33398 21.9542V8.00085C5.33395 7.75946 5.39944 7.52259 5.52349 7.31551C5.64753 7.10842 5.82546 6.9389 6.0383 6.82502C6.25114 6.71114 6.4909 6.65718 6.73201 6.66889C6.97311 6.6806 7.20652 6.75755 7.40732 6.89152ZM11.3713 4.15818C11.5842 4.04427 11.824 3.9903 12.0652 4.00204C12.3064 4.01378 12.5398 4.09079 12.7407 4.22485L20.146 9.16218C20.5113 9.40563 20.8109 9.73551 21.0182 10.1226C21.2254 10.5096 21.3339 10.9418 21.334 11.3809V25.3342C21.334 25.5756 21.2685 25.8124 21.1445 26.0195C21.0204 26.2266 20.8425 26.3961 20.6297 26.51C20.4168 26.6239 20.1771 26.6779 19.936 26.6661C19.6949 26.6544 19.4615 26.5775 19.2607 26.4435L18.0007 25.6035V14.0475C18.0005 13.2792 17.8108 12.5229 17.4481 11.8456C17.0855 11.1682 16.5613 10.5909 15.922 10.1649L10.6673 6.66085V5.33418C10.6672 5.0928 10.7327 4.85591 10.8566 4.6488C10.9806 4.44169 11.1585 4.27212 11.3713 4.15818ZM18.074 1.55818L25.4793 6.49552C25.8447 6.73896 26.1443 7.06885 26.3515 7.45589C26.5588 7.84293 26.6672 8.27515 26.6673 8.71418V22.6675C26.6674 22.9089 26.6019 23.1458 26.4778 23.3529C26.3538 23.5599 26.1758 23.7295 25.963 23.8434C25.7502 23.9572 25.5104 24.0112 25.2693 23.9995C25.0282 23.9878 24.7948 23.9108 24.594 23.7769L23.334 22.9369V11.3809C23.3339 10.6126 23.1441 9.8562 22.7815 9.17888C22.4189 8.50156 21.8946 7.92425 21.2553 7.49818L16.0007 3.99418V2.66752C16.0006 2.42613 16.0661 2.18925 16.1902 1.98217C16.3142 1.77509 16.4921 1.60557 16.705 1.49169C16.9178 1.37781 17.1576 1.32384 17.3987 1.33555C17.6398 1.34727 17.8732 1.42421 18.074 1.55818Z" fill="black"/>
  </g>
  <defs>
    <clipPath id="clip0_1145_9576">
      <rect width="32" height="32" fill="white"/>
    </clipPath>
  </defs>
</svg>