<svg xmlns="http://www.w3.org/2000/svg" width="32" height="32" viewBox="0 0 32 32" fill="none">
  <g clip-path="url(#clip0_1145_9556)">
    <path d="M10.9422 15.6758C11.0661 15.7996 11.1645 15.9467 11.2316 16.1085C11.2987 16.2704 11.3332 16.4439 11.3332 16.6191C11.3332 16.7944 11.2987 16.9679 11.2316 17.1297C11.1645 17.2916 11.0661 17.4386 10.9422 17.5625L8.50617 19.9998H21.3328C21.6865 19.9998 22.0256 20.1403 22.2757 20.3903C22.5257 20.6404 22.6662 20.9795 22.6662 21.3331C22.6662 21.6868 22.5257 22.0259 22.2757 22.2759C22.0256 22.526 21.6865 22.6665 21.3328 22.6665H8.50617L10.9435 25.1038C11.0674 25.2276 11.1657 25.3746 11.2327 25.5364C11.2998 25.6981 11.3344 25.8715 11.3344 26.0467C11.3345 26.2218 11.3001 26.3952 11.2331 26.557C11.1661 26.7189 11.068 26.8659 10.9442 26.9898C10.8204 27.1137 10.6734 27.212 10.5116 27.279C10.3498 27.3461 10.1764 27.3807 10.0013 27.3807C9.82618 27.3808 9.65275 27.3464 9.49093 27.2794C9.3291 27.2124 9.18205 27.1143 9.05817 26.9905L4.34351 22.2758C4.09355 22.0258 3.95312 21.6867 3.95312 21.3331C3.95312 20.9796 4.09355 20.6405 4.34351 20.3905L9.05817 15.6758C9.30821 15.4258 9.64729 15.2854 10.0008 15.2854C10.3544 15.2854 10.6935 15.4258 10.9435 15.6758H10.9422ZM21.0568 5.00913C21.2864 4.77957 21.5919 4.64166 21.9159 4.62128C22.24 4.60091 22.5603 4.69947 22.8168 4.89847L22.9422 5.00913L27.6568 9.7238C27.8864 9.95339 28.0243 10.2589 28.0447 10.5829C28.0651 10.9069 27.9665 11.2273 27.7675 11.4838L27.6568 11.6091L22.9422 16.3225C22.7022 16.5616 22.3803 16.7004 22.0417 16.7108C21.7031 16.7211 21.3732 16.6022 21.1191 16.3781C20.865 16.1541 20.7058 15.8417 20.6736 15.5045C20.6415 15.1673 20.739 14.8305 20.9462 14.5625L21.0568 14.4371L23.4928 11.9998H10.6662C10.3263 11.9994 9.99946 11.8693 9.75235 11.636C9.50523 11.4027 9.35653 11.0839 9.33661 10.7446C9.3167 10.4054 9.42707 10.0713 9.64519 9.81069C9.86331 9.55009 10.1727 9.38261 10.5102 9.34247L10.6662 9.33313H23.4942L21.0568 6.89313C20.8069 6.6431 20.6665 6.30402 20.6665 5.95047C20.6665 5.59691 20.8069 5.25917 21.0568 5.00913Z" fill="black"/>
  </g>
  <defs>
    <clipPath id="clip0_1145_9556">
      <rect width="32" height="32" fill="white"/>
    </clipPath>
  </defs>
</svg>