<svg xmlns="http://www.w3.org/2000/svg" width="32" height="32" viewBox="0 0 32 32" fill="none">
  <g clip-path="url(#clip0_1341_52806)">
    <path d="M17.3334 4C18.0062 3.99979 18.6542 4.25388 19.1475 4.71133C19.6408 5.16878 19.943 5.79579 19.9934 6.46667L20.0001 6.66667V28H12.0001V6.66667C11.9999 5.9939 12.254 5.34591 12.7114 4.8526C13.1689 4.35929 13.7959 4.05712 14.4667 4.00667L14.6667 4H17.3334ZM26.6667 10.6667C27.374 10.6667 28.0523 10.9476 28.5524 11.4477C29.0525 11.9478 29.3334 12.6261 29.3334 13.3333V25.3333C29.3334 26.0406 29.0525 26.7189 28.5524 27.219C28.0523 27.719 27.374 28 26.6667 28H22.6667V10.6667H26.6667ZM9.33341 14.6667V28H5.33341C4.62617 28 3.94789 27.719 3.4478 27.219C2.9477 26.7189 2.66675 26.0406 2.66675 25.3333V17.3333C2.66675 16.6261 2.9477 15.9478 3.4478 15.4477C3.94789 14.9476 4.62617 14.6667 5.33341 14.6667H9.33341Z" fill="black"/>
  </g>
  <defs>
    <clipPath id="clip0_1341_52806">
      <rect width="32" height="32" fill="white"/>
    </clipPath>
  </defs>
</svg>