<svg xmlns="http://www.w3.org/2000/svg" width="32" height="32" viewBox="0 0 32 32" fill="none">
  <g clip-path="url(#clip0_2469_10689)">
    <path d="M16.0003 2.66797C23.3643 2.66797 29.3337 8.6373 29.3337 16.0013C29.3337 23.3653 23.3643 29.3346 16.0003 29.3346C8.63633 29.3346 2.66699 23.3653 2.66699 16.0013C2.66699 8.6373 8.63633 2.66797 16.0003 2.66797ZM15.987 13.3346H14.667C14.3272 13.335 14.0003 13.4651 13.7532 13.6984C13.5061 13.9317 13.3573 14.2506 13.3374 14.5898C13.3175 14.9291 13.4279 15.2631 13.646 15.5237C13.8641 15.7843 14.1735 15.9518 14.511 15.992L14.667 16.0013V22.6546C14.667 23.348 15.1923 23.9213 15.867 23.9933L16.0137 24.0013H16.667C16.9474 24.0013 17.2207 23.9129 17.448 23.7487C17.6753 23.5844 17.845 23.3527 17.933 23.0864C18.021 22.8202 18.0228 22.533 17.9382 22.2656C17.8536 21.9983 17.6868 21.7644 17.4617 21.5973L17.3337 21.5133V14.6813C17.3337 13.988 16.8083 13.4146 16.1337 13.3426L15.987 13.3346ZM16.0003 9.33463C15.6467 9.33463 15.3076 9.47511 15.0575 9.72516C14.8075 9.97521 14.667 10.3143 14.667 10.668C14.667 11.0216 14.8075 11.3607 15.0575 11.6108C15.3076 11.8608 15.6467 12.0013 16.0003 12.0013C16.3539 12.0013 16.6931 11.8608 16.9431 11.6108C17.1932 11.3607 17.3337 11.0216 17.3337 10.668C17.3337 10.3143 17.1932 9.97521 16.9431 9.72516C16.6931 9.47511 16.3539 9.33463 16.0003 9.33463Z" fill="#F65737"/>
  </g>
  <defs>
    <clipPath id="clip0_2469_10689">
      <rect width="32" height="32" fill="white"/>
    </clipPath>
  </defs>
</svg>