<svg width="24" height="24" viewBox="0 0 24 24" fill="none" xmlns="http://www.w3.org/2000/svg">
<g id="logotoken">
<rect width="24" height="24" rx="12" fill="#A28CFF"/>
<path id="Vector 24" d="M8.99709 8.59336C9.35057 11.4022 6.76289 15.4682 5.57518 17.2165C5.35253 17.5442 5.47382 17.6467 5.77916 17.3942C8.73526 14.9497 12.2567 13.2171 14.5858 13.5555C14.6751 13.5685 14.696 13.6833 14.6198 13.7316C13.625 14.3616 11.9706 15.5767 11.566 16.5985C11.3807 17.0668 11.2791 17.9483 11.2698 18.5792C11.2663 18.8173 11.4639 19 11.7019 19H18.5543C18.7972 19 18.9991 18.8094 19.0007 18.5664C19.0422 12.4479 12.9675 7.07973 9.85341 5.1245C9.37767 4.76872 8.54038 4.9644 8.99709 8.59336Z" fill="black"/>
</g>
</svg>
