<svg xmlns="http://www.w3.org/2000/svg" width="32" height="32" viewBox="0 0 32 32" fill="none">
  <g clip-path="url(#clip0_2469_10129)">
    <path d="M16.0003 2.66797C23.3643 2.66797 29.3337 8.6373 29.3337 16.0013C29.3337 23.3653 23.3643 29.3346 16.0003 29.3346C8.63633 29.3346 2.66699 23.3653 2.66699 16.0013C2.66699 8.6373 8.63633 2.66797 16.0003 2.66797ZM20.7137 11.176L14.1137 17.776L11.287 14.948C11.1632 14.8241 11.0162 14.7258 10.8544 14.6587C10.6927 14.5916 10.5193 14.5571 10.3441 14.557C9.99044 14.5569 9.65118 14.6973 9.40099 14.9473C9.1508 15.1973 9.01018 15.5365 9.01006 15.8902C9.00993 16.2439 9.15031 16.5831 9.40033 16.8333L13.0777 20.5106C13.2139 20.6469 13.3756 20.755 13.5536 20.8287C13.7316 20.9025 13.9223 20.9405 14.115 20.9405C14.3077 20.9405 14.4984 20.9025 14.6764 20.8287C14.8544 20.755 15.0161 20.6469 15.1523 20.5106L22.6003 13.0626C22.8505 12.8124 22.9911 12.4731 22.9911 12.1193C22.9911 11.7655 22.8505 11.4262 22.6003 11.176C22.3501 10.9258 22.0108 10.7852 21.657 10.7852C21.3032 10.7852 20.9638 10.9258 20.7137 11.176Z" fill="#45B441"/>
  </g>
  <defs>
    <clipPath id="clip0_2469_10129">
      <rect width="32" height="32" fill="white"/>
    </clipPath>
  </defs>
</svg>