<svg xmlns="http://www.w3.org/2000/svg" width="24" height="24" viewBox="0 0 24 24" fill="none">
  <g clip-path="url(#clip0_2410_9880)">
    <path fill-rule="evenodd" clip-rule="evenodd" d="M7.747 5.5921C8.85023 4.33313 10.0808 3.19172 11.419 2.1861C11.5886 2.06506 11.7917 2 12 2C12.2083 2 12.4114 2.06506 12.581 2.1861C13.9152 3.19647 15.1453 4.33746 16.253 5.5921C18.584 8.2561 20 11.0881 20 14.0001C20 16.1218 19.1571 18.1567 17.6569 19.657C16.1566 21.1572 14.1217 22.0001 12 22.0001C9.87827 22.0001 7.84344 21.1572 6.34315 19.657C4.84285 18.1567 4 16.1218 4 14.0001C4 11.0881 5.415 8.2571 7.747 5.5921ZM12.443 4.6341C12.2973 4.5088 12.1496 4.38578 12 4.2651L11.557 4.6351C10.736 5.3374 9.966 6.09732 9.253 6.9091C7.21 9.2431 6 11.6631 6 14.0001C6 15.4291 6.5 16.7401 7.333 17.7701C7.31777 17.6159 7.31009 17.461 7.31 17.3061C7.31 15.6331 8.106 14.0411 9.405 12.5561C10.005 11.8711 10.685 11.2251 11.423 10.6861C11.5927 10.5648 11.796 10.4996 12.0045 10.4996C12.213 10.4996 12.4163 10.5648 12.586 10.6861C13.326 11.2161 14.006 11.8731 14.604 12.5561C15.904 14.0411 16.699 15.6331 16.699 17.3061C16.699 17.4581 16.692 17.6091 16.677 17.7581C17.5349 16.6937 18.0019 15.3672 18 14.0001C18 11.6621 16.79 9.2431 14.747 6.9091C14.034 6.09697 13.2641 5.33671 12.443 4.6341ZM12.004 12.7861C11.619 13.1281 11.249 13.4861 10.91 13.8741C9.9 15.0281 9.31 16.2081 9.31 17.3061C9.31 18.0207 9.59388 18.7061 10.0992 19.2114C10.6045 19.7167 11.2899 20.0006 12.0045 20.0006C12.7191 20.0006 13.4045 19.7167 13.9098 19.2114C14.4151 18.7061 14.699 18.0207 14.699 17.3061C14.699 16.2081 14.109 15.0281 13.099 13.8741C12.909 13.6561 11.966 12.7531 12.004 12.7861Z" fill="#A7AEAD"/>
  </g>
  <defs>
    <clipPath id="clip0_2410_9880">
      <rect width="24" height="24" fill="white"/>
    </clipPath>
  </defs>
</svg>