<svg xmlns="http://www.w3.org/2000/svg" width="71" height="42" viewBox="0 0 71 42" fill="none">
  <path d="M0.28125 12.8003C0.28125 6.03466 5.76587 0.550049 12.5315 0.550049H58.4699C65.2355 0.550049 70.7201 6.03467 70.7201 12.8003V39.4083C70.7201 40.5359 69.806 41.45 68.6784 41.45H12.5315C5.76587 41.45 0.28125 35.9654 0.28125 29.1998V12.8003Z" fill="white"/>
  <path d="M20.0946 15.0134C20.8784 13.6417 22.8562 13.6417 23.64 15.0134L29.2107 24.762C29.9885 26.1231 29.0057 27.8167 27.438 27.8167H16.2967C14.729 27.8167 13.7462 26.1231 14.524 24.762L20.0946 15.0134Z" fill="black"/>
  <rect x="43.4531" y="14.1833" width="13.6333" height="13.6333" rx="6.81667" fill="black"/>
</svg>