<svg xmlns="http://www.w3.org/2000/svg" width="79" height="15" viewBox="0 0 79 15" fill="none">
  <path d="M3.50154 14.0575C1.54658 14.0575 0.300781 12.9265 0.300781 11.2588C0.300781 9.07355 1.94908 8.4218 4.38318 7.96174C5.91648 7.67421 6.85562 7.48252 6.85562 6.52406C6.85562 5.81481 6.43397 5.22057 4.9965 5.22057C3.29071 5.22057 2.77322 5.7573 2.67739 7.0608H0.76077C0.856601 5.18223 2.08324 3.70621 5.07317 3.70621C7.08562 3.70621 8.69558 4.54965 8.69558 7.07997V11.5655C8.69558 12.2748 8.79141 12.639 9.15557 12.639C9.21307 12.639 9.27057 12.639 9.38556 12.6198V13.77C9.05974 13.8467 8.73391 13.885 8.42725 13.885C7.48811 13.885 6.98979 13.5208 6.87479 12.409H6.83646C6.20397 13.4249 5.09233 14.0575 3.50154 14.0575ZM3.92319 12.5432C5.60982 12.5432 6.85562 11.6805 6.85562 9.9745V8.57515C6.54896 8.86269 5.70565 9.07355 4.70901 9.28441C2.98405 9.62945 2.25573 10.1087 2.25573 11.1246C2.25573 12.0448 2.75406 12.5432 3.92319 12.5432Z" fill="black"/>
  <path d="M17.421 10.0128V4.01291H19.2993V13.7891H17.421V12.5623H17.3827C16.8652 13.3099 15.8494 14.0575 14.1627 14.0575C12.3611 14.0575 10.9045 13.0224 10.9045 10.7796V4.01291H12.7828V10.262C12.7828 11.5847 13.3578 12.4665 14.7761 12.4665C16.386 12.4665 17.421 11.4889 17.421 10.0128Z" fill="black"/>
  <path d="M25.0098 12.3515C25.3356 12.3515 25.4889 12.3323 25.8147 12.2748V13.7891C25.3356 13.885 25.0289 13.9042 24.6264 13.9042C23.0165 13.9042 22.039 13.2907 22.039 11.0288V5.56561H20.6207V4.01291H22.039V0.869184H23.9173V4.01291H25.7956V5.56561H23.9173V11.0863C23.9173 12.1214 24.2048 12.3515 25.0098 12.3515Z" fill="black"/>
  <path d="M31.5225 14.0767C28.4751 14.0767 26.6352 11.9681 26.6352 8.90103C26.6352 5.85315 28.4751 3.70621 31.5417 3.70621C34.57 3.70621 36.4099 5.83398 36.4099 8.88186C36.4099 11.9489 34.57 14.0767 31.5225 14.0767ZM31.5417 12.524C33.535 12.524 34.455 10.933 34.455 8.90103C34.455 6.84994 33.535 5.27807 31.5417 5.27807C29.5101 5.27807 28.5901 6.84994 28.5901 8.90103C28.5901 10.933 29.5101 12.524 31.5417 12.524Z" fill="black"/>
  <path d="M38.8987 13.7891H36.6754L41.7736 0.083252H44.0544L49.1909 13.7891H46.891L45.7602 10.4921H40.0295L38.8987 13.7891ZM42.8852 2.0385L40.662 8.70934H45.166L42.9236 2.0385H42.8852Z" fill="black"/>
  <path d="M52.318 2.26853H50.1906V0.236605H52.318V2.26853ZM52.1839 13.7891H50.3056V4.01291H52.1839V13.7891Z" fill="black"/>
  <path d="M58.8347 3.78288C59.1797 3.78288 59.448 3.80205 59.7355 3.84039V5.64229C59.5055 5.60395 59.333 5.58478 59.103 5.58478C57.3972 5.58478 56.1706 6.86911 56.1706 8.72851V13.7891H54.2923V4.01291H56.1706V5.87231H56.2089C56.7264 4.64549 57.5122 3.78288 58.8347 3.78288Z" fill="black"/>
  <path d="M65.1773 13.7891H62.9541L68.0523 0.083252H70.3331L75.4696 13.7891H73.1697L72.0388 10.4921H66.3081L65.1773 13.7891ZM69.1639 2.0385L66.9406 8.70934H71.4447L69.2022 2.0385H69.1639Z" fill="black"/>
  <path d="M78.9992 13.7891H76.8909V0.083252H78.9992V13.7891Z" fill="black"/>
</svg>