<svg xmlns="http://www.w3.org/2000/svg" width="28" height="16" viewBox="0 0 28 16" fill="none">
  <path d="M0 4.79227C0 2.14557 2.14525 0 4.79155 0H22.7599C25.4062 0 27.5514 2.14557 27.5514 4.79227V15.2013C27.5514 15.6424 27.1939 16 26.7528 16H4.79155C2.14525 16 0 13.8544 0 11.2077V4.79227Z" fill="black"/>
  <path d="M7.75015 5.65806C8.05672 5.12147 8.83032 5.12147 9.13689 5.65805L11.3158 9.47171C11.62 10.0042 11.2356 10.6667 10.6224 10.6667H6.26462C5.65144 10.6667 5.26702 10.0042 5.57124 9.47171L7.75015 5.65806Z" fill="white"/>
  <rect x="16.8867" y="5.33325" width="5.33253" height="5.33333" rx="2.66627" fill="white"/>
</svg>