<svg xmlns="http://www.w3.org/2000/svg" width="20" height="20" viewBox="0 0 20 20" fill="none">
  <g clip-path="url(#clip0_1144_3681)">
    <path d="M9.99935 1.6665C14.6018 1.6665 18.3327 5.39734 18.3327 9.99984C18.3327 14.6023 14.6018 18.3332 9.99935 18.3332C5.39685 18.3332 1.66602 14.6023 1.66602 9.99984C1.66602 5.39734 5.39685 1.6665 9.99935 1.6665ZM9.99935 3.33317C8.23124 3.33317 6.53555 4.03555 5.2853 5.28579C4.03506 6.53603 3.33268 8.23173 3.33268 9.99984C3.33268 11.7679 4.03506 13.4636 5.2853 14.7139C6.53555 15.9641 8.23124 16.6665 9.99935 16.6665C11.7675 16.6665 13.4632 15.9641 14.7134 14.7139C15.9636 13.4636 16.666 11.7679 16.666 9.99984C16.666 8.23173 15.9636 6.53603 14.7134 5.28579C13.4632 4.03555 11.7675 3.33317 9.99935 3.33317ZM12.9452 6.984C13.0948 6.83296 13.2965 6.74481 13.509 6.7376C13.7215 6.73039 13.9287 6.80467 14.0882 6.94523C14.2477 7.08578 14.3474 7.28199 14.367 7.49369C14.3866 7.70539 14.3245 7.91657 14.1935 8.084L14.1243 8.16234L9.46935 12.8182C9.31047 12.977 9.09878 13.072 8.87449 13.0851C8.6502 13.0981 8.42892 13.0283 8.25268 12.889L8.17268 12.8182L5.87435 10.5198C5.7233 10.3702 5.63516 10.1685 5.62795 9.95605C5.62074 9.74357 5.69501 9.53636 5.83557 9.37685C5.97613 9.21734 6.17234 9.11759 6.38404 9.098C6.59573 9.07842 6.80691 9.14049 6.97435 9.2715L7.05268 9.3415L8.82102 11.109L12.946 6.984H12.9452Z" fill="black"/>
  </g>
  <defs>
    <clipPath id="clip0_1144_3681">
      <rect width="20" height="20" fill="white"/>
    </clipPath>
  </defs>
</svg>