<svg xmlns="http://www.w3.org/2000/svg" width="24" height="24" viewBox="0 0 24 24" fill="none">
  <g clip-path="url(#clip0_1467_8299)">
    <path d="M5.63604 16.9492C5.4485 17.1367 5.34314 17.391 5.34314 17.6563C5.34314 17.9215 5.4485 18.1758 5.63604 18.3634C5.82357 18.5509 6.07793 18.6563 6.34314 18.6563C6.60836 18.6563 6.86271 18.5509 7.05025 18.3634L12 13.4136L16.9497 18.3634C17.1373 18.5509 17.3916 18.6563 17.6569 18.6563C17.9221 18.6563 18.1764 18.5509 18.364 18.3634C18.5515 18.1758 18.6569 17.9215 18.6569 17.6563C18.6569 17.391 18.5515 17.1367 18.364 16.9492L13.4142 11.9994L18.364 7.04966C18.5515 6.86212 18.6569 6.60777 18.6569 6.34255C18.6569 6.07734 18.5515 5.82298 18.364 5.63545C18.1764 5.44791 17.9221 5.34255 17.6569 5.34255C17.3916 5.34255 17.1373 5.44791 16.9497 5.63545L12 10.5852L7.05025 5.63545C6.86272 5.44791 6.60836 5.34255 6.34315 5.34255C6.07793 5.34255 5.82358 5.44791 5.63604 5.63545C5.4485 5.82298 5.34315 6.07734 5.34315 6.34255C5.34315 6.60777 5.4485 6.86212 5.63604 7.04966L10.5858 11.9994L5.63604 16.9492Z" fill="black"/>
  </g>
  <defs>
    <clipPath id="clip0_1467_8299">
      <rect width="24" height="24" fill="white"/>
    </clipPath>
  </defs>
</svg>