<svg width="12" height="8" viewBox="0 0 12 8" fill="none" xmlns="http://www.w3.org/2000/svg">
<g id="Group 4">
<path id="Rectangle 2" d="M0.0644531 2.70063C0.0644531 1.62872 0.988828 0.759766 2.1291 0.759766H9.87154C11.0118 0.759766 11.9362 1.62872 11.9362 2.70063V6.91629C11.9362 7.09494 11.7821 7.23977 11.5921 7.23977H2.1291C0.988828 7.23977 0.0644531 6.37081 0.0644531 5.2989V2.70063Z" fill="white"/>
<path id="Polygon 3" d="M3.40074 3.05166C3.53284 2.83434 3.86618 2.83434 3.99828 3.05166L4.93715 4.59619C5.06824 4.81184 4.9026 5.08016 4.63838 5.08016H2.76063C2.49642 5.08016 2.33078 4.81184 2.46186 4.59619L3.40074 3.05166Z" fill="black"/>
<rect id="Rectangle 4" x="7.3418" y="2.91992" width="2.29775" height="2.16" rx="1.08" fill="black"/>
</g>
</svg>
