<svg xmlns="http://www.w3.org/2000/svg" width="41" height="40" viewBox="0 0 41 40" fill="none">
  <g clip-path="url(#clip0_2090_5039)">
    <path fill-rule="evenodd" clip-rule="evenodd" d="M20.4997 36.6566C29.7043 36.6566 37.1663 29.1946 37.1663 19.9899C37.1663 10.7852 29.7043 3.32324 20.4997 3.32324C11.2949 3.32324 3.83301 10.7852 3.83301 19.9899C3.83301 29.1946 11.2949 36.6566 20.4997 36.6566ZM15.5052 14.9848C15.5052 15.9053 16.2514 16.6515 17.1718 16.6515H21.4808L14.321 23.8114C13.6702 24.4622 13.6702 25.5174 14.321 26.1684C14.9719 26.8192 16.0272 26.8192 16.6781 26.1684L23.8387 19.0077V23.3181C23.8387 24.2386 24.5848 24.9847 25.5053 24.9847C26.4257 24.9847 27.172 24.2386 27.172 23.3181V14.9848C27.172 14.0643 26.4257 13.3182 25.5053 13.3182H17.1718C16.2514 13.3182 15.5052 14.0643 15.5052 14.9848Z" fill="white"/>
  </g>
  <defs>
    <clipPath id="clip0_2090_5039">
      <rect width="40" height="40" fill="white" transform="translate(0.5)"/>
    </clipPath>
  </defs>
</svg>