<svg xmlns="http://www.w3.org/2000/svg" width="41" height="8" viewBox="0 0 41 8" fill="none">
  <path d="M40.3536 4.35355C40.5488 4.15829 40.5488 3.84171 40.3536 3.64645L37.1716 0.464466C36.9763 0.269204 36.6597 0.269204 36.4645 0.464466C36.2692 0.659728 36.2692 0.976311 36.4645 1.17157L39.2929 4L36.4645 6.82843C36.2692 7.02369 36.2692 7.34027 36.4645 7.53553C36.6597 7.7308 36.9763 7.7308 37.1716 7.53553L40.3536 4.35355ZM0 4.5H1.42857V3.5H0V4.5ZM4.28571 4.5H7.14286V3.5H4.28571V4.5ZM10 4.5H12.8571V3.5H10V4.5ZM15.7143 4.5H18.5714V3.5H15.7143V4.5ZM21.4286 4.5H24.2857V3.5H21.4286V4.5ZM27.1429 4.5H30V3.5H27.1429V4.5ZM32.8571 4.5H35.7143V3.5H32.8571V4.5ZM38.5714 4.5H40V3.5H38.5714V4.5Z" fill="#686A6C"/>
</svg>