<svg xmlns="http://www.w3.org/2000/svg" width="24" height="24" viewBox="0 0 24 24" fill="none">
  <g opacity="0.5">
    <path fill-rule="evenodd" clip-rule="evenodd" d="M11.9968 13.4149L17.6536 19.0718C18.0441 19.4623 18.6773 19.4623 19.0678 19.0718C19.4583 18.6812 19.4583 18.0481 19.0678 17.6575L13.411 12.0007L19.0678 6.34384C19.4583 5.95332 19.4583 5.32015 19.0678 4.92963C18.6773 4.5391 18.0441 4.5391 17.6536 4.92963L11.9968 10.5865L6.33991 4.92961C5.94939 4.53909 5.31622 4.53909 4.9257 4.92961C4.53518 5.32014 4.53518 5.9533 4.9257 6.34383L10.5825 12.0007L4.9257 17.6576C4.53518 18.0481 4.53518 18.6812 4.9257 19.0718C5.31622 19.4623 5.94939 19.4623 6.33991 19.0718L11.9968 13.4149Z" fill="white"/>
  </g>
</svg>