<svg xmlns="http://www.w3.org/2000/svg" width="33" height="32" viewBox="0 0 33 32" fill="none">
  <g clip-path="url(#clip0_2090_5048)">
    <path d="M12.9856 7.29132L23.6522 7.29136C24.3886 7.29127 24.9856 7.88825 24.9855 8.62468L24.9856 19.2913C24.9856 20.0277 24.3886 20.6247 23.6523 20.6247C22.9158 20.6248 22.3189 20.0278 22.319 19.2913L22.3189 11.8436L9.83362 24.3289C9.31293 24.8496 8.46872 24.8496 7.948 24.3289C7.42729 23.8081 7.42731 22.9639 7.948 22.4432L20.4332 9.958L12.9856 9.95797C12.2491 9.95804 11.6522 9.36109 11.6523 8.62464C11.6522 7.88828 12.2492 7.29129 12.9856 7.29132Z" fill="black"/>
  </g>
  <defs>
    <clipPath id="clip0_2090_5048">
      <rect width="32" height="32" fill="white" transform="translate(0.5)"/>
    </clipPath>
  </defs>
</svg>