<svg xmlns="http://www.w3.org/2000/svg" width="21" height="20" viewBox="0 0 21 20" fill="none">
  <g clip-path="url(#clip0_2389_2639)">
    <path d="M15.5002 4.16797C15.7212 4.16797 15.9331 4.25577 16.0894 4.41205C16.2457 4.56833 16.3335 4.78029 16.3335 5.0013V11.668C16.3335 11.889 16.2457 12.1009 16.0894 12.2572C15.9331 12.4135 15.7212 12.5013 15.5002 12.5013C15.2791 12.5013 15.0672 12.4135 14.9109 12.2572C14.7546 12.1009 14.6668 11.889 14.6668 11.668V7.01297L6.37515 15.3046C6.21798 15.4564 6.00748 15.5404 5.78898 15.5385C5.57049 15.5366 5.36147 15.449 5.20697 15.2945C5.05246 15.14 4.96482 14.931 4.96292 14.7125C4.96102 14.494 5.04502 14.2835 5.19682 14.1263L13.4885 5.83464H8.83348C8.61247 5.83464 8.40051 5.74684 8.24423 5.59056C8.08795 5.43428 8.00015 5.22232 8.00015 5.0013C8.00015 4.78029 8.08795 4.56833 8.24423 4.41205C8.40051 4.25577 8.61247 4.16797 8.83348 4.16797H15.5002Z" fill="#A7AEAD"/>
  </g>
  <defs>
    <clipPath id="clip0_2389_2639">
      <rect width="20" height="20" fill="white" transform="translate(0.5)"/>
    </clipPath>
  </defs>
</svg>