<svg xmlns="http://www.w3.org/2000/svg" width="20" height="20" viewBox="0 0 20 20" fill="none">
  <g clip-path="url(#clip0_1144_3666)">
    <path d="M9.99935 1.6665C14.6018 1.6665 18.3327 5.39734 18.3327 9.99984C18.3327 14.6023 14.6018 18.3332 9.99935 18.3332C5.39685 18.3332 1.66602 14.6023 1.66602 9.99984C1.66602 5.39734 5.39685 1.6665 9.99935 1.6665ZM9.99935 3.33317C8.23124 3.33317 6.53555 4.03555 5.2853 5.28579C4.03506 6.53603 3.33268 8.23173 3.33268 9.99984C3.33268 11.7679 4.03506 13.4636 5.2853 14.7139C6.53555 15.9641 8.23124 16.6665 9.99935 16.6665C11.7675 16.6665 13.4632 15.9641 14.7134 14.7139C15.9636 13.4636 16.666 11.7679 16.666 9.99984C16.666 8.23173 15.9636 6.53603 14.7134 5.28579C13.4632 4.03555 11.7675 3.33317 9.99935 3.33317ZM8.23185 7.05317L9.99935 8.8215L11.7668 7.05317C11.8443 6.97575 11.9362 6.91433 12.0374 6.87243C12.1385 6.83052 12.2469 6.80896 12.3564 6.80896C12.4659 6.80896 12.5744 6.83052 12.6755 6.87243C12.7767 6.91433 12.8686 6.97575 12.946 7.05317C13.0234 7.1306 13.0849 7.22251 13.1268 7.32367C13.1687 7.42483 13.1902 7.53326 13.1902 7.64275C13.1902 7.75225 13.1687 7.86067 13.1268 7.96183C13.0849 8.06299 13.0234 8.15491 12.946 8.23234L11.1777 9.999L12.946 11.7673C13.1024 11.9237 13.1902 12.1358 13.1902 12.3569C13.1902 12.5781 13.1024 12.7901 12.946 12.9465C12.7896 13.1029 12.5776 13.1907 12.3564 13.1907C12.1353 13.1907 11.9232 13.1029 11.7668 12.9465L9.99935 11.1782L8.23185 12.9465C8.07548 13.1029 7.8634 13.1907 7.64227 13.1907C7.42113 13.1907 7.20905 13.1029 7.05268 12.9465C6.89631 12.7901 6.80847 12.5781 6.80847 12.3569C6.80847 12.1358 6.89631 11.9237 7.05268 11.7673L8.82102 9.99984L7.05352 8.23234C6.89715 8.07608 6.80926 7.86411 6.80918 7.64305C6.8091 7.42199 6.89684 7.20995 7.0531 7.05359C7.20936 6.89722 7.42133 6.80933 7.64239 6.80925C7.86345 6.80917 8.07548 6.89691 8.23185 7.05317Z" fill="#A7AEAD"/>
  </g>
  <defs>
    <clipPath id="clip0_1144_3666">
      <rect width="20" height="20" fill="white"/>
    </clipPath>
  </defs>
</svg>