<svg xmlns="http://www.w3.org/2000/svg" width="20" height="20" viewBox="0 0 20 20" fill="none">
  <g clip-path="url(#clip0_1358_1270)">
    <path d="M10.0001 1.66699C14.6026 1.66699 18.3334 5.39783 18.3334 10.0003C18.3334 14.6028 14.6026 18.3337 10.0001 18.3337C5.39758 18.3337 1.66675 14.6028 1.66675 10.0003C1.66675 5.39783 5.39758 1.66699 10.0001 1.66699ZM10.0001 3.33366C8.23197 3.33366 6.53628 4.03604 5.28604 5.28628C4.03579 6.53652 3.33341 8.23222 3.33341 10.0003C3.33341 11.7684 4.03579 13.4641 5.28604 14.7144C6.53628 15.9646 8.23197 16.667 10.0001 16.667C11.7682 16.667 13.4639 15.9646 14.7141 14.7144C15.9644 13.4641 16.6667 11.7684 16.6667 10.0003C16.6667 8.23222 15.9644 6.53652 14.7141 5.28628C13.4639 4.03604 11.7682 3.33366 10.0001 3.33366ZM8.23258 7.05366L10.0001 8.82199L11.7676 7.05366C11.845 6.97623 11.9369 6.91482 12.0381 6.87291C12.1392 6.83101 12.2477 6.80945 12.3572 6.80945C12.4667 6.80945 12.5751 6.83101 12.6762 6.87291C12.7774 6.91482 12.8693 6.97623 12.9467 7.05366C13.0242 7.13108 13.0856 7.223 13.1275 7.32416C13.1694 7.42532 13.191 7.53375 13.191 7.64324C13.191 7.75274 13.1694 7.86116 13.1275 7.96232C13.0856 8.06348 13.0242 8.1554 12.9467 8.23283L11.1784 9.99949L12.9467 11.7678C13.1031 11.9242 13.191 12.1363 13.191 12.3574C13.191 12.5785 13.1031 12.7906 12.9467 12.947C12.7904 13.1034 12.5783 13.1912 12.3572 13.1912C12.136 13.1912 11.9239 13.1034 11.7676 12.947L10.0001 11.1787L8.23258 12.947C8.07621 13.1034 7.86413 13.1912 7.643 13.1912C7.42186 13.1912 7.20978 13.1034 7.05341 12.947C6.89705 12.7906 6.8092 12.5785 6.8092 12.3574C6.8092 12.1363 6.89705 11.9242 7.05341 11.7678L8.82175 10.0003L7.05425 8.23283C6.89788 8.07657 6.80999 7.8646 6.80991 7.64354C6.80983 7.42248 6.89757 7.21044 7.05383 7.05408C7.21009 6.89771 7.42206 6.80982 7.64312 6.80974C7.86418 6.80966 8.07621 6.8974 8.23258 7.05366Z" fill="#686A6C"/>
  </g>
  <defs>
    <clipPath id="clip0_1358_1270">
      <rect width="20" height="20" fill="white"/>
    </clipPath>
  </defs>
</svg>