<svg width="104" height="104" viewBox="0 0 104 104" fill="none" xmlns="http://www.w3.org/2000/svg">
<rect width="104" height="104" rx="20" fill="black"/>
<g clip-path="url(#clip0_2957_15097)">
<path fill-rule="evenodd" clip-rule="evenodd" d="M70.1463 34.3367C70.723 34.094 71.3541 34.0103 71.974 34.0943C72.5939 34.1783 73.18 34.4269 73.6713 34.8143C74.1625 35.2016 74.541 35.7136 74.7672 36.2969C74.9934 36.8801 75.0592 37.5134 74.9577 38.1307L69.6657 70.2303C69.1523 73.3267 65.755 75.1023 62.9153 73.56C60.54 72.2697 57.012 70.2817 53.8387 68.2073C52.252 67.169 47.3917 63.844 47.989 61.478C48.5023 59.455 56.669 51.853 61.3357 47.3333C63.1673 45.5577 62.332 44.5333 60.169 46.1667C54.7977 50.222 46.1737 56.389 43.3223 58.125C40.807 59.6557 39.4957 59.917 37.9277 59.6557C35.067 59.1797 32.414 58.4423 30.2487 57.544C27.3227 56.3307 27.465 52.308 30.2463 51.1367L70.1463 34.3367Z" fill="white"/>
</g>
<defs>
<clipPath id="clip0_2957_15097">
<rect width="56" height="56" fill="white" transform="translate(24 24)"/>
</clipPath>
</defs>
</svg>
